<svg width="3583" height="921" viewBox="0 0 3583 921" fill="none" xmlns="http://www.w3.org/2000/svg">
<path d="M592.834 838.731L395.145 617.322L202.525 838.731H0V617.322L185.887 423.766L0 230.049V18.3174H185.887L790.062 617.322V838.731H592.834ZM492.871 311.2V0H792.134V311.2H492.871Z" fill="white"/>
<path d="M1164.91 769.883V232.98H1512.15V326.572H1273.86V454.504H1494.29V548.096H1273.86V676.291H1513.16V769.883H1164.91ZM1957.1 367.207L1821.98 769.883H1701.19L1566.07 367.207H1679.3L1759.57 655.319H1763.6L1843.62 367.207H1957.1ZM2175.64 777.748C2135.88 777.748 2101.66 769.36 2072.97 752.58C2044.46 735.628 2022.48 711.683 2007.05 680.749C1991.62 649.638 1983.9 612.852 1983.9 570.38C1983.9 528.956 1991.62 492.607 2007.05 461.321C2022.48 430.036 2044.21 405.655 2072.22 388.178C2100.4 370.702 2133.45 361.963 2171.37 361.963C2196.86 361.963 2220.6 366.245 2242.58 374.809C2264.72 383.197 2284.01 395.869 2300.45 412.821C2317.06 429.775 2329.98 451.096 2339.2 476.788C2348.43 502.303 2353.04 532.191 2353.04 566.446V597.119H2026.68V527.909H2252.14C2252.14 511.832 2248.78 497.588 2242.07 485.18C2235.36 472.768 2226.05 463.07 2214.14 456.077C2202.4 448.912 2188.72 445.329 2173.13 445.329C2156.85 445.329 2142.43 449.263 2129.85 457.127C2117.43 464.817 2107.7 475.217 2100.66 488.325C2093.61 501.256 2090 515.677 2089.84 531.581V597.38C2089.84 617.305 2093.36 634.523 2100.4 649.029C2107.62 663.535 2117.77 674.72 2130.85 682.585C2143.94 690.449 2159.45 694.379 2177.4 694.379C2189.31 694.379 2200.22 692.633 2210.12 689.136C2220.01 685.644 2228.49 680.397 2235.53 673.408C2242.58 666.418 2247.94 657.85 2251.64 647.716L2350.78 654.534C2345.74 679.35 2335.43 701.025 2319.82 719.547C2304.39 737.898 2284.43 752.228 2259.94 762.542C2235.61 772.68 2207.52 777.748 2175.64 777.748ZM2422.99 769.883V367.207H2526.91V437.465H2530.94C2537.98 412.473 2549.81 393.597 2566.42 380.839C2583.02 367.906 2602.16 361.439 2623.79 361.439C2629.17 361.439 2634.95 361.788 2641.15 362.487C2647.37 363.186 2652.82 364.148 2657.52 365.37V464.47C2652.49 462.895 2645.51 461.496 2636.63 460.272C2627.73 459.049 2619.6 458.437 2612.23 458.437C2596.44 458.437 2582.36 462.02 2569.94 469.185C2557.69 476.174 2547.97 485.965 2540.75 498.545C2533.71 511.133 2530.19 525.639 2530.19 542.067V769.883H2422.99ZM2790.88 920.887C2777.29 920.887 2764.53 919.75 2752.62 917.476C2740.88 915.382 2731.16 912.67 2723.44 909.354L2747.6 825.985C2760.17 830.006 2771.51 832.189 2781.56 832.537C2791.79 832.889 2800.6 830.443 2807.98 825.196C2815.53 819.957 2821.66 811.042 2826.36 798.458L2832.65 781.416L2694.01 367.207H2806.74L2886.74 662.922H2890.78L2971.55 367.207H3085.04L2934.82 813.401C2927.6 835.073 2917.79 853.947 2905.37 870.027C2893.12 886.284 2877.6 898.778 2858.82 907.517C2840.02 916.429 2817.39 920.887 2790.88 920.887ZM3244.07 232.98L3347.99 415.968H3352.02L3456.45 232.98H3579.48L3422.22 501.432L3583 769.883H3457.69L3352.02 586.633H3347.99L3242.3 769.883H3117.5L3278.8 501.432L3120.51 232.98H3244.07Z" fill="white"/>
</svg>
